<svg width="49" height="57" viewBox="0 0 49 57" fill="none" xmlns="http://www.w3.org/2000/svg">
<path d="M42.7575 6.64121L27.4033 0.890371C25.8121 0.304121 23.2158 0.304121 21.6246 0.890371L6.27042 6.64121C3.31125 7.75787 0.910416 11.2195 0.910416 14.3741V36.9866C0.910416 39.2479 2.39 42.235 4.20458 43.575L19.5587 55.0487C22.2667 57.0866 26.7054 57.0866 29.4133 55.0487L44.7675 43.575C46.5821 42.207 48.0617 39.2479 48.0617 36.9866V14.3741C48.0896 11.2195 45.6888 7.75787 42.7575 6.64121ZM26.5938 30.9287V38.2708C26.5938 39.4154 25.6446 40.3645 24.5 40.3645C23.3554 40.3645 22.4062 39.4154 22.4062 38.2708V30.9287C19.5867 30.0354 17.5208 27.4112 17.5208 24.3125C17.5208 20.46 20.6475 17.3333 24.5 17.3333C28.3525 17.3333 31.4792 20.46 31.4792 24.3125C31.4792 27.4391 29.4133 30.0354 26.5938 30.9287Z" fill="#EDA415"/>
</svg>
